<?xml version="1.0" standalone="no"?>
<!DOCTYPE svg PUBLIC "-//W3C//DTD SVG 20010904//EN"
 "http://www.w3.org/TR/2001/REC-SVG-20010904/DTD/svg10.dtd">
<svg version="1.0" xmlns="http://www.w3.org/2000/svg"
 width="130.000000pt" height="156.000000pt" viewBox="0 0 130.000000 156.000000"
 preserveAspectRatio="xMidYMid meet">

<g transform="translate(0.000000,156.000000) scale(0.100000,-0.100000)"
fill="#000000" stroke="none">
<path d="M56 1543 c-3 -10 -15 -79 -28 -153 -20 -116 -23 -170 -23 -380 1
-220 3 -254 23 -334 65 -257 182 -431 381 -565 77 -53 201 -111 234 -111 35 0
144 50 229 106 367 237 490 656 385 1309 l-23 140 -586 3 c-552 2 -587 1 -592
-15z m1138 -55 c50 -298 60 -400 53 -558 -14 -335 -123 -576 -331 -735 -88
-66 -229 -139 -271 -139 -33 0 -168 65 -243 116 -68 47 -158 141 -208 218 -93
145 -142 317 -151 540 -7 158 3 260 53 558 l5 32 544 0 544 0 5 -32z"/>
<path d="M119 1318 c-20 -120 -24 -176 -24 -348 0 -195 2 -210 28 -304 52
-183 137 -316 266 -419 74 -59 221 -137 257 -137 34 0 183 81 256 139 128 101
213 235 264 417 27 94 29 110 29 304 0 172 -4 228 -24 348 l-24 142 -502 0
-501 0 -25 -142z m555 87 c3 -8 0 -14 -6 -12 -19 4 -20 -21 -1 -26 10 -3 3 -5
-14 -4 -26 1 -33 6 -33 22 0 15 2 17 9 6 7 -11 10 -9 16 8 7 24 20 27 29 6z
m-154 -24 c0 -11 3 -10 14 4 13 18 14 18 24 -2 10 -18 9 -21 -16 -21 -15 0
-30 5 -34 12 -6 8 -11 7 -18 -4 -8 -12 -10 -12 -10 5 0 14 6 21 20 21 11 0 20
-7 20 -15z m90 -1 c0 -12 -7 -20 -17 -20 -15 0 -16 2 -3 10 10 6 11 10 3 10
-7 0 -13 5 -13 10 0 6 7 10 15 10 8 0 15 -9 15 -20z m110 8 c0 -9 3 -9 12 0
17 17 34 15 35 -5 1 -14 -8 -18 -40 -20 -30 -2 -38 0 -27 7 10 6 11 10 3 10
-7 0 -13 5 -13 10 0 6 7 10 15 10 8 0 15 -5 15 -12z m92 -11 c-4 -14 -7 -16
-13 -5 -12 19 -11 25 5 25 8 0 11 -8 8 -20z m-452 -56 c0 -6 -5 -13 -11 -17
-8 -4 -7 -9 2 -15 11 -7 10 -9 -3 -9 -20 0 -24 15 -7 26 8 4 7 9 -2 15 -11 7
-10 9 4 9 9 0 17 -4 17 -9z m40 0 c0 -5 2 -16 5 -23 4 -9 -2 -14 -15 -14 -13
0 -19 5 -15 14 3 7 5 18 5 23 0 5 5 9 10 9 6 0 10 -4 10 -9z m43 2 c-7 -2 -13
-11 -13 -18 0 -7 6 -16 13 -18 9 -4 9 -6 0 -6 -6 -1 -15 4 -18 9 -9 15 2 40
17 39 10 0 10 -2 1 -6z m57 -3 c7 12 10 8 10 -15 0 -23 -3 -27 -10 -15 -9 13
-11 13 -20 0 -7 -12 -10 -8 -10 15 0 23 3 27 10 15 9 -13 11 -13 20 0z m56
-18 c1 -17 -2 -20 -11 -12 -9 8 -15 7 -18 -2 -3 -7 -6 0 -6 15 -1 22 3 28 17
25 10 -2 17 -13 18 -26z m46 0 c4 -12 -1 -18 -13 -18 -20 0 -22 5 -13 30 7 19
20 13 26 -12z m59 18 c12 7 20 6 24 0 5 -8 12 -7 22 1 12 10 16 10 24 -2 7
-12 9 -12 9 0 0 8 2 12 5 9 3 -3 2 -16 -3 -28 l-9 -24 -7 25 -7 24 -10 -25
c-8 -20 -12 -22 -19 -10 -5 8 -10 10 -10 5 0 -14 -40 -14 -40 0 0 5 -5 3 -10
-5 -7 -12 -10 -8 -10 15 0 22 3 26 12 17 7 -7 17 -8 29 -2z m141 1 c-11 -7
-10 -9 3 -15 20 -7 10 -26 -13 -26 -13 0 -14 2 -3 9 9 6 10 11 2 15 -17 11
-13 26 7 26 13 0 14 -2 4 -9z m113 -16 c0 -17 -7 -20 -42 -22 -39 -1 -43 1
-43 22 0 21 4 23 43 22 35 -2 42 -5 42 -22z m50 -2 c1 -17 -1 -20 -11 -12 -8
7 -14 6 -17 -3 -3 -7 -6 0 -6 15 -1 21 3 28 16 25 9 -2 17 -13 18 -25z m-247
-69 c12 -4 22 -12 22 -18 0 -7 7 -35 15 -64 l15 -51 132 66 c100 50 135 63
147 56 19 -12 21 -55 3 -61 -7 -2 -12 0 -11 5 3 20 -2 33 -14 33 -7 0 -21 -6
-30 -12 -16 -12 -16 -16 4 -55 14 -28 28 -43 40 -43 21 0 43 -35 35 -56 -3 -8
-11 -14 -17 -14 -7 0 -9 3 -6 7 4 3 2 12 -4 19 -8 10 -24 7 -75 -19 -52 -25
-64 -36 -64 -55 0 -23 0 -23 110 -20 108 3 110 3 110 -19 0 -15 -5 -21 -14
-17 -11 4 -13 0 -9 -16 6 -22 -21 -60 -42 -60 -7 0 -23 9 -36 20 l-24 19 26 1
c31 0 39 7 32 26 -4 10 -24 14 -74 14 l-69 0 0 -48 0 -47 75 -45 c47 -28 75
-52 75 -62 0 -24 -6 -23 -80 21 l-65 39 -12 -75 c-17 -99 -55 -174 -118 -231
-49 -44 -134 -96 -144 -87 -2 2 4 16 13 30 10 15 14 34 11 46 -6 18 -5 19 14
7 15 -9 23 -10 32 -1 8 8 6 13 -9 17 -11 4 -23 14 -27 23 -5 15 -3 14 14 -1
11 -10 27 -16 35 -13 9 4 18 1 22 -4 4 -7 10 -7 16 -1 16 16 0 32 -31 32 -35
0 -55 22 -49 55 3 13 1 26 -5 28 -6 2 -6 13 -2 27 7 23 8 23 22 4 7 -10 19
-19 26 -19 7 0 11 -12 10 -25 -1 -14 1 -32 3 -40 5 -13 7 -12 15 2 9 17 11 17
31 -2 22 -21 43 -17 34 6 -3 8 0 14 7 14 7 0 3 7 -7 15 -11 8 -14 15 -7 15 7
0 9 4 6 10 -3 5 -20 9 -37 7 -19 -1 -33 3 -36 12 -3 9 0 11 8 6 19 -12 -4 27
-29 47 -20 17 -28 38 -15 38 3 0 20 -11 36 -25 34 -29 45 -27 29 3 -19 37 -12
41 18 11 29 -29 55 -37 65 -20 3 5 -1 11 -8 14 -8 3 -20 15 -26 27 -11 20 -10
21 10 10 11 -6 29 -8 40 -5 17 6 16 9 -13 36 -32 30 -32 31 -6 25 36 -8 42 2
19 32 -25 31 -25 42 -1 42 17 0 17 3 5 52 -8 28 -12 54 -9 56 4 5 -16 19 -54
38 -7 4 -21 3 -30 -3 -16 -11 -17 -26 -6 -100 l6 -43 -35 0 c-19 0 -38 -4 -41
-10 -3 -5 -12 -10 -18 -10 -7 0 -1 9 13 20 l25 21 -27 -7 c-16 -3 -28 -2 -28
4 0 11 33 22 68 22 12 0 22 4 22 9 0 5 -14 9 -30 9 -17 -1 -33 2 -37 5 -3 4 4
7 16 7 32 0 22 21 -19 42 -38 19 -50 16 -50 -13 0 -25 -26 -54 -35 -39 -3 5
-17 10 -31 10 -21 0 -37 19 -16 20 4 0 15 7 25 14 15 12 16 18 7 35 -7 15 -7
21 0 21 6 0 13 -7 16 -15 4 -8 10 -15 16 -15 5 0 7 3 4 8 -7 12 17 38 42 46
12 4 22 12 22 17 0 21 -34 20 -73 -2 -28 -15 -59 -23 -92 -24 -49 0 -75 12
-204 94 l-24 15 6 -67 6 -68 -32 7 c-48 10 -97 36 -97 51 0 25 81 118 109 124
14 4 35 10 46 14 19 8 19 8 2 -12 -17 -20 -17 -21 55 -65 124 -77 114 -76 147
-21 50 80 62 94 95 109 36 15 43 16 74 8z m-228 -259 c0 -32 -2 -35 -30 -35
-25 0 -30 4 -30 23 0 15 9 28 23 35 34 16 37 15 37 -23z m190 -15 c0 -5 -2
-10 -4 -10 -3 0 -8 5 -11 10 -3 6 -1 10 4 10 6 0 11 -4 11 -10z m167 -6 c11
-10 13 -18 6 -22 -6 -4 -16 -26 -22 -49 -15 -54 -55 -101 -106 -124 -49 -23
-75 -24 -75 -4 0 9 -10 16 -25 16 -14 1 -31 2 -37 3 -7 0 -14 17 -16 36 -2 19
-10 41 -19 48 -9 6 -12 12 -7 12 6 0 15 -5 22 -12 7 -7 28 -11 47 -10 24 2 37
-2 41 -13 3 -8 10 -12 15 -9 5 3 9 -2 9 -11 0 -9 -4 -13 -10 -10 -5 3 -10 -1
-10 -11 0 -13 6 -15 31 -10 74 15 147 95 123 134 -8 12 -8 22 0 34 13 22 14
22 33 2z m-469 -12 c3 -10 -20 -12 -104 -10 -76 2 -109 7 -112 16 -3 10 20 12
104 10 76 -2 109 -7 112 -16z m131 -43 c-6 -11 -5 -20 1 -24 16 -10 12 -25 -5
-19 -15 6 -21 64 -8 77 12 12 22 -16 12 -34z m61 15 c0 -2 -7 -4 -15 -4 -8 0
-15 4 -15 10 0 5 7 7 15 4 8 -4 15 -8 15 -10z m57 -10 c-3 -3 -12 -4 -19 -1
-8 3 -5 6 6 6 11 1 17 -2 13 -5z m-257 -61 l-1 -58 -17 33 c-16 29 -20 31 -36
19 -18 -13 -17 -15 3 -55 14 -28 26 -40 36 -36 9 4 15 0 15 -8 0 -8 -18 -23
-40 -33 -42 -19 -67 -13 -37 10 17 12 17 15 1 54 -14 35 -20 41 -42 39 -49 -6
-31 18 40 54 40 20 74 37 76 37 1 1 2 -25 2 -56z m120 -28 c0 -28 -4 -35 -20
-35 -12 0 -17 5 -14 14 4 10 -2 12 -22 8 l-26 -5 17 27 c11 16 26 26 41 26 21
0 24 -5 24 -35z m80 -73 c0 -28 -15 -52 -33 -52 -5 0 -7 14 -3 32 l6 32 -25
-24 -25 -23 0 31 c0 31 2 32 40 32 37 0 40 -2 40 -28z m80 -86 c0 -43 -16 -55
-31 -23 l-11 24 -30 -28 c-24 -22 -29 -33 -24 -53 6 -25 -7 -36 -19 -16 -4 6
-16 3 -33 -8 -25 -16 -26 -16 -19 1 3 9 2 17 -3 17 -6 0 -10 5 -10 10 0 6 8
10 18 10 14 0 15 2 2 10 -16 10 -8 14 23 10 23 -2 57 27 57 50 0 24 9 30 47
30 31 0 33 -2 33 -34z m-40 -136 c0 -13 -28 -25 -38 -16 -3 4 0 11 8 16 20 13
30 12 30 0z m19 -22 c-13 -26 -30 -39 -40 -32 -4 2 5 17 20 33 30 33 38 33 20
-1z m17 -44 c-3 -8 -10 -13 -16 -9 -6 4 -5 13 3 26 13 21 23 8 13 -17z m-218
-64 c43 -22 52 -35 30 -42 -13 -5 -35 5 -81 36 -22 15 -25 21 -16 33 7 8 15
10 18 5 3 -6 25 -20 49 -32z m529 24 c8 -22 -25 -48 -43 -33 -10 8 -9 14 4 30
20 23 31 24 39 3z m-47 -45 c0 -5 -5 -8 -12 -6 -7 1 -13 -4 -14 -10 -1 -7 -2
-16 -3 -20 0 -4 -8 2 -17 13 -12 15 -15 15 -10 2 2 -9 -1 -19 -9 -22 -22 -8
-24 17 -3 34 21 17 68 23 68 9z m-400 -35 c0 -9 5 -12 13 -8 9 5 9 4 1 -5 -8
-9 -17 -9 -38 0 -19 9 -23 15 -14 21 21 13 38 9 38 -8z m310 -10 c0 -8 -4 -14
-9 -14 -11 0 -22 26 -14 34 9 9 23 -3 23 -20z m-41 -28 c-13 -15 -19 -3 -12
24 6 22 7 22 14 4 3 -10 3 -23 -2 -28z m-219 14 c0 -19 -11 -26 -23 -14 -8 8
3 34 14 34 5 0 9 -9 9 -20z m180 -20 c0 -13 -1 -13 -10 0 -5 8 -10 22 -10 30
0 13 1 13 10 0 5 -8 10 -22 10 -30z m-143 17 c0 -8 -6 -14 -14 -14 -7 0 -13 6
-13 14 0 7 6 13 13 13 8 0 14 -6 14 -13z m76 0 c-4 -6 0 -8 10 -4 8 3 18 0 20
-7 4 -9 -6 -13 -33 -12 -26 1 -36 5 -33 13 3 7 0 13 -5 13 -6 0 -13 -8 -15
-17 -4 -14 -5 -13 -6 4 -1 18 4 21 34 21 22 0 33 -4 28 -11z m-87 -86 c0 -14
-4 -17 -12 -11 -6 6 -14 7 -17 3 -4 -3 -7 -2 -7 4 0 13 11 23 25 23 6 0 11 -9
11 -19z m44 -1 c0 -13 -5 -18 -15 -14 -8 4 -15 12 -15 20 0 8 7 14 15 14 8 0
15 -9 15 -20z m40 -11 c0 -3 -7 -6 -15 -6 -17 0 -17 0 -9 22 5 13 8 14 15 3 5
-7 9 -16 9 -19z m57 17 c-3 -8 -1 -17 6 -20 7 -2 4 -5 -5 -5 -10 -1 -18 5 -19
12 0 10 -2 10 -6 0 -2 -7 -9 -13 -14 -13 -6 0 -5 8 1 20 12 23 45 28 37 6z"/>
<path d="M887 1314 c-8 -8 1 -24 14 -24 5 0 9 7 9 15 0 15 -12 20 -23 9z"/>
<path d="M930 1150 c-12 -8 -11 -15 8 -55 19 -40 24 -44 42 -35 19 10 19 11
-2 55 -24 48 -25 50 -48 35z"/>
<path d="M867 1119 c-16 -9 -16 -12 -2 -39 9 -17 20 -30 25 -30 4 0 10 -7 12
-15 2 -10 8 -12 17 -5 13 7 12 14 -4 50 -22 49 -25 51 -48 39z"/>
<path d="M795 1080 c-10 -16 4 -30 31 -30 22 0 23 3 14 20 -11 21 -35 27 -45
10z"/>
<path d="M610 960 c0 -5 4 -10 9 -10 6 0 13 5 16 10 3 6 -1 10 -9 10 -9 0 -16
-4 -16 -10z"/>
<path d="M405 380 c-3 -5 -1 -10 4 -10 6 0 11 5 11 10 0 6 -2 10 -4 10 -3 0
-8 -4 -11 -10z"/>
<path d="M930 411 c0 -6 5 -13 10 -16 6 -3 10 1 10 9 0 9 -4 16 -10 16 -5 0
-10 -4 -10 -9z"/>
</g>
</svg>
